<svg width="109" height="33" viewBox="0 0 109 33" fill="none" xmlns="http://www.w3.org/2000/svg">
<path d="M7.248 12.864C9.104 12.864 10.52 13.256 11.496 14.04C12.472 14.824 12.96 15.968 12.96 17.472C12.96 19.008 12.472 20.184 11.496 21C10.52 21.8 9.104 22.2 7.248 22.2H5.784V24.576H8.208V27H0.984V24.576H3V15.288H0.984V12.864H7.248ZM7.224 20.016C9.112 20.016 10.056 19.192 10.056 17.544C10.056 16.04 9.112 15.288 7.224 15.288H5.808V20.016H7.224Z" fill="#EE2B69"/>
<path d="M14.3897 16.272H19.1417V24.816H21.1337V27H14.3897V24.816H16.3817V18.432H14.3897V16.272ZM17.5097 11.064C18.0057 11.064 18.4057 11.216 18.7097 11.52C19.0137 11.824 19.1657 12.224 19.1657 12.72C19.1657 13.216 19.0137 13.616 18.7097 13.92C18.4057 14.224 18.0057 14.376 17.5097 14.376C17.0137 14.376 16.6137 14.224 16.3097 13.92C16.0217 13.616 15.8777 13.216 15.8777 12.72C15.8777 12.224 16.0217 11.824 16.3097 11.52C16.6137 11.216 17.0137 11.064 17.5097 11.064ZM28.2311 27.456C27.4471 27.456 26.7591 27.304 26.1671 27C25.5911 26.696 25.1431 26.224 24.8231 25.584C24.5031 24.944 24.3431 24.12 24.3431 23.112V18.432H22.3511V16.272H24.3431V14.208L26.9831 13.416V16.272H29.8871V18.432H26.9831V22.344C26.9831 23.256 27.1031 23.968 27.3431 24.48C27.5991 24.992 28.0151 25.248 28.5911 25.248C29.0391 25.248 29.5751 25.088 30.1991 24.768L30.7031 26.784C30.3351 26.96 29.9351 27.112 29.5031 27.24C29.0871 27.384 28.6631 27.456 28.2311 27.456ZM39.1031 18.144C38.8151 18.048 38.5351 17.984 38.2631 17.952C38.0071 17.92 37.7431 17.904 37.4711 17.904C36.4951 17.904 35.7431 18.224 35.2151 18.864C34.6871 19.504 34.4231 20.456 34.4231 21.72C34.4231 22.824 34.7111 23.688 35.2871 24.312C35.8631 24.936 36.5671 25.248 37.3991 25.248C37.9271 25.248 38.4711 25.152 39.0311 24.96C39.5911 24.752 40.1431 24.456 40.6871 24.072L41.7911 25.704C41.3271 26.056 40.8711 26.368 40.4231 26.64C39.9751 26.896 39.5031 27.096 39.0071 27.24C38.5111 27.384 37.9511 27.456 37.3271 27.456C36.1751 27.456 35.1671 27.24 34.3031 26.808C33.4551 26.36 32.7991 25.712 32.3351 24.864C31.8711 24 31.6391 22.952 31.6391 21.72C31.6391 20.424 31.8711 19.336 32.3351 18.456C32.7991 17.576 33.4631 16.912 34.3271 16.464C35.1911 16.016 36.2311 15.792 37.4471 15.792C38.0711 15.792 38.6871 15.856 39.2951 15.984C39.9191 16.096 40.5351 16.264 41.1431 16.488L41.7431 19.584L39.4391 20.088L39.1031 18.144ZM43.1608 27V24.816H45.1528V13.848L42.8728 13.08L43.5928 10.896L47.8888 12.36V16.728C48.8968 16.12 50.0488 15.816 51.3448 15.816C52.6408 15.816 53.6328 16.192 54.3208 16.944C55.0088 17.696 55.3528 18.784 55.3528 20.208V24.816H57.3688V27H51.6088V24.816H52.6168V20.592C52.6168 19.728 52.4488 19.104 52.1128 18.72C51.7768 18.32 51.2408 18.12 50.5048 18.12C50.1368 18.12 49.7128 18.176 49.2328 18.288C48.7528 18.4 48.3128 18.552 47.9128 18.744V24.816H48.8968V27H43.1608ZM58.8975 16.272H63.6495V24.816H65.6415V27H58.8975V24.816H60.8895V18.432H58.8975V16.272ZM62.0175 11.064C62.5135 11.064 62.9135 11.216 63.2175 11.52C63.5215 11.824 63.6735 12.224 63.6735 12.72C63.6735 13.216 63.5215 13.616 63.2175 13.92C62.9135 14.224 62.5135 14.376 62.0175 14.376C61.5215 14.376 61.1215 14.224 60.8175 13.92C60.5295 13.616 60.3855 13.216 60.3855 12.72C60.3855 12.224 60.5295 11.824 60.8175 11.52C61.1215 11.216 61.5215 11.064 62.0175 11.064ZM69.2829 15.24C69.2829 13.784 69.6589 12.68 70.4109 11.928C71.1629 11.16 72.2749 10.776 73.7469 10.776C74.4189 10.776 75.0429 10.864 75.6189 11.04C76.1949 11.2 76.6829 11.448 77.0829 11.784L76.1469 13.68C75.4269 13.232 74.7229 13.008 74.0349 13.008C73.3789 13.008 72.8589 13.192 72.4749 13.56C72.1069 13.928 71.9229 14.512 71.9229 15.312V16.272H74.8989V18.432H71.9229V24.816H74.0829V27H67.2669V24.816H69.2829V18.432H67.2669V16.272H69.2829V15.24ZM79.2094 32.808C78.8894 32.808 78.5534 32.768 78.2014 32.688C77.8494 32.624 77.4814 32.512 77.0974 32.352L77.6014 30.24C77.8894 30.352 78.1454 30.432 78.3694 30.48C78.6094 30.544 78.8654 30.576 79.1374 30.576C79.5214 30.576 79.8414 30.48 80.0974 30.288C80.3694 30.112 80.6254 29.792 80.8654 29.328C81.1214 28.88 81.4094 28.248 81.7294 27.432L85.3054 18.432H84.0574L84.1774 16.272H89.8174V18.432H87.9694L83.5534 28.824C82.9614 30.232 82.3214 31.248 81.6334 31.872C80.9454 32.496 80.1374 32.808 79.2094 32.808ZM82.2334 28.584L77.4814 18.432H75.7294V16.272H81.5854V18.432H80.2654L83.5054 26.088L82.2334 28.584Z" fill="black"/>
<path d="M105.141 16.5186C105.295 17.1629 104.755 17.7938 103.481 18.2955C102.073 18.8422 100.643 19.337 99.2249 19.858C98.5652 20.3482 97.7931 20.4594 97.025 20.3711C95.7046 20.2311 95.1726 18.9363 96.0192 17.9181C96.4777 17.3681 96.9983 16.8235 97.8072 16.7964C99.388 16.126 101.053 15.7318 102.756 15.5593C104.086 15.425 104.973 15.83 105.141 16.5186Z" fill="black"/>
<path d="M98.4879 8.04521C98.069 8.15843 97.633 8.29605 97.2708 8.52728C95.6626 9.55138 94.0665 10.5973 92.6882 11.9311C92.4098 12.1994 92.1559 12.507 91.9505 12.8337C91.6413 13.3273 91.606 13.8521 91.9966 14.3334C92.3833 14.8098 92.8916 14.8685 93.4579 14.7255C93.8946 14.6158 94.2847 14.4096 94.6269 14.1347C95.2738 13.6149 95.8971 13.0664 96.2771 12.7438C97.1639 11.9178 97.8217 11.3322 98.4433 10.711C98.8216 10.3329 99.1729 9.91972 99.4861 9.48464C99.7222 9.15676 99.7979 8.76183 99.5334 8.3911C99.2754 8.02661 98.8847 7.93965 98.4879 8.04521Z" fill="black"/>
<path d="M91.7412 2.06322C91.7506 2.63325 91.82 3.23274 91.4462 3.746L91.4525 3.75284C91.1447 5.73472 90.8194 7.70912 90.0105 9.562C89.7786 10.0932 89.4916 10.6134 89.1824 11.1069C88.8785 11.6071 88.4089 11.8438 87.8098 11.7504C87.2107 11.6573 86.8954 11.2307 86.7085 10.6966C86.5375 10.1822 86.552 9.63955 86.6024 9.09942C86.7586 7.27983 87.3309 5.56988 87.9893 3.87959C88.0064 2.91807 88.4797 2.11286 88.9444 1.32563C89.3205 0.706419 89.884 0.321504 90.6575 0.497428C91.2893 0.644246 91.722 1.23633 91.7412 2.06322Z" fill="black"/>
</svg>
