<?xml version="1.0" encoding="UTF-8" standalone="no" ?>
<!DOCTYPE svg PUBLIC "-//W3C//DTD SVG 1.1//EN" "http://www.w3.org/Graphics/SVG/1.1/DTD/svg11.dtd">
<svg xmlns="http://www.w3.org/2000/svg" xmlns:xlink="http://www.w3.org/1999/xlink" version="1.1" width="1080" height="1080" viewBox="0 0 1080 1080" xml:space="preserve">
<desc>Created with Fabric.js 5.2.4</desc>
<defs>
</defs>
<g transform="matrix(1 0 0 1 540 540)" id="5de0d235-efb7-45eb-90db-215d2bf70a0d"  >
<rect style="stroke: none; stroke-width: 1; stroke-dasharray: none; stroke-linecap: butt; stroke-dashoffset: 0; stroke-linejoin: miter; stroke-miterlimit: 4; fill: rgb(255,255,255); fill-rule: nonzero; opacity: 1; visibility: hidden;" vector-effect="non-scaling-stroke"  x="-540" y="-540" rx="0" ry="0" width="1080" height="1080" />
</g>
<g transform="matrix(1 0 0 1 540 540)" id="4d071eff-c831-4043-b60b-a83d1479cef0"  >
</g>
<g transform="matrix(1 0 0 1 588.5 503.64)"  >
<path style="stroke: none; stroke-width: 1; stroke-dasharray: none; stroke-linecap: butt; stroke-dashoffset: 0; stroke-linejoin: miter; stroke-miterlimit: 4; fill: rgb(0,0,0); fill-rule: nonzero; opacity: 1;" vector-effect="non-scaling-stroke"  transform=" translate(-138.73, -17.35)" d="M 142.893 14.5657 C 143.23 15.136 142.9 15.898 141.831 16.7527 C 140.646 17.6902 139.426 18.5843 138.224 19.5002 C 137.738 20.163 137.033 20.4968 136.273 20.6388 C 134.97 20.8941 134.08 19.8136 134.589 18.5911 C 134.865 17.9304 135.202 17.2566 135.967 16.9923 C 137.28 15.8859 138.755 15.0185 140.331 14.3519 C 141.563 13.8314 142.53 13.957 142.893 14.5657 Z" stroke-linecap="round" />
</g>
<g transform="matrix(1 0 0 1 583.85 499.3)"  >
<path style="stroke: none; stroke-width: 1; stroke-dasharray: none; stroke-linecap: butt; stroke-dashoffset: 0; stroke-linejoin: miter; stroke-miterlimit: 4; fill: rgb(0,0,0); fill-rule: nonzero; opacity: 1;" vector-effect="non-scaling-stroke"  transform=" translate(-132.31, -12.41)" d="M 134.039 8.4293 C 133.672 8.66096 133.296 8.92094 133.018 9.24865 C 131.783 10.7012 130.566 12.1711 129.642 13.8518 C 129.455 14.1902 129.303 14.559 129.203 14.9317 C 129.053 15.4945 129.174 16.0064 129.689 16.3512 C 130.199 16.6925 130.702 16.5988 131.201 16.2952 C 131.586 16.0617 131.898 15.7497 132.144 15.3862 C 132.609 14.6988 133.043 13.991 133.311 13.5707 C 133.915 12.5201 134.371 11.7667 134.782 10.9899 C 135.032 10.5171 135.246 10.0187 135.417 9.51067 C 135.546 9.12777 135.502 8.72805 135.14 8.45173 C 134.786 8.17947 134.387 8.21151 134.039 8.4293 Z" stroke-linecap="round" />
</g>
<g transform="matrix(1 0 0 1 577.86 495.61)"  >
<path style="stroke: none; stroke-width: 1; stroke-dasharray: none; stroke-linecap: butt; stroke-dashoffset: 0; stroke-linejoin: miter; stroke-miterlimit: 4; fill: rgb(0,0,0); fill-rule: nonzero; opacity: 1;" vector-effect="non-scaling-stroke"  transform=" translate(-124.56, -9.33)" d="M 125.829 4.70129 C 126.006 5.24323 126.249 5.79564 126.043 6.39628 L 126.051 6.40097 C 126.341 8.38552 126.612 10.3681 126.385 12.3771 C 126.32 12.953 126.199 13.5347 126.049 14.0974 C 125.906 14.6649 125.527 15.0295 124.927 15.1168 C 124.327 15.2044 123.9 14.8897 123.564 14.4344 C 123.249 13.9932 123.103 13.4704 122.992 12.9394 C 122.605 11.1546 122.648 9.35192 122.779 7.54268 C 122.512 6.61881 122.727 5.70988 122.939 4.82068 C 123.116 4.11811 123.541 3.58424 124.332 3.5244 C 124.979 3.47851 125.567 3.91677 125.829 4.70129 Z" stroke-linecap="round" />
</g>
<g transform="matrix(1 0 0 1 540 496.27)" style="" id="8c55560c-fe5e-4eba-8114-0e1e89a8a184"  >
		<text xml:space="preserve" font-family="Alegreya" font-size="29" font-style="normal" font-weight="700" style="stroke: none; stroke-width: 1; stroke-dasharray: none; stroke-linecap: butt; stroke-dashoffset: 0; stroke-linejoin: miter; stroke-miterlimit: 4; fill: rgb(0,0,0); fill-rule: nonzero; opacity: 1; white-space: pre;" ><tspan x="-39.02" y="25.5" >itchify</tspan></text>
</g>
<g transform="matrix(NaN NaN NaN NaN 0 0)"  >
<g style=""   >
</g>
</g>
<g transform="matrix(NaN NaN NaN NaN 0 0)"  >
<g style=""   >
</g>
</g>
<g transform="matrix(1 0 0 1 491.03 510.47)" style="" id="e615f948-e7d1-46f7-a99a-5d16a72baa10"  >
		<text xml:space="preserve" font-family="Lato" font-size="40" font-style="normal" font-weight="400" style="stroke: none; stroke-width: 1; stroke-dasharray: none; stroke-linecap: butt; stroke-dashoffset: 0; stroke-linejoin: miter; stroke-miterlimit: 4; fill: rgb(238,43,105); fill-rule: nonzero; opacity: 1; white-space: pre;" ><tspan x="-12.22" y="12.57" >P</tspan></text>
</g>
<g transform="matrix(NaN NaN NaN NaN 0 0)"  >
<g style=""   >
</g>
</g>
</svg>