<svg width="144" height="30" viewBox="0 0 144 30" fill="none" xmlns="http://www.w3.org/2000/svg">
<path d="M50.127 8C50.7643 8 51.2764 8.17904 51.6631 8.53711C52.057 8.89518 52.2539 9.36068 52.2539 9.9336C52.2539 10.4993 52.057 10.9648 51.6631 11.3301C51.2764 11.6882 50.7643 11.8672 50.127 11.8672C49.4968 11.8672 48.9847 11.6882 48.5908 11.3301C48.197 10.9648 48 10.4993 48 9.9336C48 9.36068 48.197 8.89518 48.5908 8.53711C48.9847 8.17904 49.4968 8 50.127 8ZM52.0713 24.5H48.1826V12.877H52.0713V24.5Z" fill="black"/>
<path d="M70.5 25.0527C69.2754 25.0527 68.2549 24.7949 67.4384 24.2793C66.6292 23.7637 66.0205 23.0619 65.6123 22.1738C65.2041 21.2787 65 20.2653 65 19.1338V18.9297C65 17.7982 65.2005 16.7848 65.6015 15.8897C66.0097 14.9945 66.6185 14.2891 67.4277 13.7734C68.2441 13.2578 69.261 13 70.4785 13C71.4668 13 72.3333 13.1862 73.0781 13.5586C73.83 13.9238 74.4173 14.4609 74.8398 15.1699C75.2623 15.8789 75.4664 16.7455 75.4521 17.7695H71.832C71.8392 17.4688 71.7926 17.193 71.6924 16.9424C71.5993 16.6917 71.4453 16.4912 71.2304 16.3408C71.0156 16.1904 70.7327 16.1152 70.3818 16.1152C69.9306 16.1152 69.5976 16.2441 69.3828 16.502C69.1679 16.7526 69.0283 17.0928 68.9638 17.5225C68.8994 17.945 68.8672 18.4141 68.8672 18.9297V19.1338C68.8672 19.6637 68.8958 20.14 68.9531 20.5625C69.0175 20.985 69.1608 21.3216 69.3828 21.5723C69.6048 21.8158 69.9485 21.9375 70.414 21.9375C70.7291 21.9375 70.9941 21.8838 71.209 21.7764C71.4238 21.669 71.5814 21.515 71.6816 21.3145C71.789 21.1068 71.8392 20.8597 71.832 20.5733H75.4521C75.4664 21.4828 75.2552 22.2741 74.8183 22.9473C74.3886 23.6133 73.7978 24.1325 73.0459 24.5049C72.3011 24.8701 71.4524 25.0527 70.5 25.0527Z" fill="black"/>
<path d="M63.1436 15.6826H56V12.8897H63.1436V15.6826ZM61.2852 10V20.5059C61.2852 20.778 61.3174 20.9928 61.3819 21.1504C61.4463 21.3008 61.5609 21.4082 61.7256 21.4727C61.8975 21.5371 62.1302 21.5693 62.4239 21.5693C62.6244 21.5693 62.7927 21.5658 62.9287 21.5586C63.0648 21.5514 63.1901 21.5371 63.3047 21.5156V24.3945C62.9753 24.5091 62.6387 24.5915 62.2949 24.6416C61.9584 24.6989 61.5895 24.7275 61.1885 24.7275C60.3864 24.7275 59.7025 24.6022 59.1367 24.3516C58.5781 24.0938 58.152 23.6963 57.8584 23.1592C57.5648 22.6149 57.418 21.9167 57.418 21.0645V10H61.2852Z" fill="black"/>
<path d="M117.273 13.377H121.42L116.79 26.708C116.69 27.0016 116.554 27.3203 116.382 27.6641C116.21 28.0078 115.977 28.3337 115.684 28.6416C115.397 28.9495 115.025 29.2002 114.566 29.3936C114.115 29.5941 113.553 29.6943 112.88 29.6943C112.636 29.6943 112.443 29.6872 112.3 29.6729C112.157 29.6657 112.017 29.6442 111.881 29.6084C111.745 29.5726 111.562 29.526 111.333 29.4688V26.5898C111.419 26.5898 111.491 26.5863 111.548 26.5791C111.612 26.5791 111.688 26.5791 111.773 26.5791C112.346 26.5791 112.747 26.5075 112.977 26.3643C113.213 26.2282 113.378 26.0384 113.471 25.7949L114.33 23.5928L117.273 13.377ZM115.995 21.1865L116.393 25.5049L113.814 25.3652L109.722 13.377H113.868L115.995 21.1865Z" fill="black"/>
<path d="M142.893 14.5657C143.23 15.136 142.9 15.898 141.831 16.7527C140.646 17.6902 139.426 18.5843 138.224 19.5002C137.738 20.163 137.033 20.4968 136.273 20.6388C134.97 20.8941 134.08 19.8136 134.589 18.5911C134.865 17.9304 135.202 17.2566 135.967 16.9923C137.28 15.8859 138.755 15.0185 140.331 14.3519C141.563 13.8314 142.53 13.957 142.893 14.5657Z" fill="black"/>
<path d="M134.039 8.4293C133.672 8.66096 133.296 8.92094 133.018 9.24865C131.783 10.7012 130.566 12.1711 129.642 13.8518C129.455 14.1902 129.303 14.559 129.203 14.9317C129.053 15.4945 129.174 16.0064 129.689 16.3512C130.199 16.6925 130.702 16.5988 131.201 16.2952C131.586 16.0617 131.898 15.7497 132.144 15.3862C132.609 14.6988 133.043 13.991 133.311 13.5707C133.915 12.5201 134.371 11.7667 134.782 10.9899C135.032 10.5171 135.246 10.0187 135.417 9.51067C135.546 9.12777 135.502 8.72805 135.14 8.45173C134.786 8.17947 134.387 8.21151 134.039 8.4293Z" fill="black"/>
<path d="M125.829 4.70129C126.006 5.24323 126.249 5.79564 126.043 6.39628L126.051 6.40097C126.341 8.38552 126.612 10.3681 126.385 12.3771C126.32 12.953 126.199 13.5347 126.049 14.0974C125.906 14.6649 125.527 15.0295 124.927 15.1168C124.327 15.2044 123.9 14.8897 123.564 14.4344C123.249 13.9932 123.103 13.4704 122.992 12.9394C122.605 11.1546 122.648 9.35192 122.779 7.54268C122.512 6.61881 122.727 5.70988 122.939 4.82068C123.116 4.11811 123.541 3.58424 124.332 3.5244C124.979 3.47851 125.567 3.91677 125.829 4.70129Z" fill="black"/>
<path d="M101.215 24.6667V15.3333H98V12.2222H101.215V10.5516C101.215 7.38833 102.807 6 105.523 6C106.824 6 107.512 6.09333 107.837 6.13611V9.11111H105.985C104.832 9.11111 104.429 9.69989 104.429 10.893V12.2222H107.808L107.35 15.3333H104.429V24.6667H101.215Z" fill="black"/>
<path d="M93.0512 9C93.6658 9 94.1596 9.1671 94.5326 9.5013C94.9124 9.8355 95.1023 10.27 95.1023 10.8047C95.1023 11.3327 94.9124 11.7671 94.5326 12.1081C94.1596 12.4423 93.6658 12.6094 93.0512 12.6094C92.4435 12.6094 91.9496 12.4423 91.5697 12.1081C91.19 11.7671 91 11.3327 91 10.8047C91 10.27 91.19 9.8355 91.5697 9.5013C91.9496 9.1671 92.4435 9 93.0512 9ZM94.9262 24.4H91.1761V13.5519H94.9262V24.4Z" fill="black"/>
<path d="M77.0104 10.0319C77.0012 10.0497 76.9981 13.3338 77.0012 17.3265L77.0104 24.5824L79.1052 24.5914L81.1969 24.5973L81.2124 21.7539C81.2247 18.7557 81.2278 18.6931 81.3733 18.1691C81.5311 17.5915 81.9178 17.1955 82.4686 17.0377C82.6759 16.9781 83.1401 16.9752 83.3566 17.0317C83.7001 17.1181 83.9971 17.3384 84.1426 17.6153C84.1797 17.6838 84.2385 17.8416 84.2756 17.9666C84.3406 18.1929 84.3437 18.2257 84.3592 21.3966C84.3685 23.1563 84.3839 24.5944 84.3994 24.5884C84.4118 24.5854 85.3617 24.5824 86.5096 24.5824H88.6013L88.5889 20.7773C88.5766 16.6447 88.5858 16.8858 88.4064 16.2308C88.0444 14.9148 87.113 14.0871 85.7206 13.8459C85.3679 13.7834 84.5046 13.7774 84.1147 13.831C83.106 13.9739 82.3665 14.3283 81.5156 15.0786C81.364 15.2125 81.2309 15.3227 81.2216 15.3227C81.2093 15.3227 81.2031 14.1258 81.2031 12.6639V10.008L79.1145 10.0021C77.4715 9.99612 77.0197 10.0021 77.0104 10.0319Z" fill="black"/>
<path d="M32 8.13992C33.5116 8.11003 35.0232 8.08014 36.5805 8.04935C37.053 8.03615 37.5254 8.02296 38.0121 8.00937C41.9613 7.97154 41.9613 7.97154 43.711 9.58901C45.2447 11.4826 45.1337 13.447 44.8444 15.7477C43.9639 17.5987 43.0016 18.2538 41.0666 19.0082C40.0395 19.0828 39.1111 19.113 38.0916 19.0761C37.8316 19.0712 37.5715 19.0663 37.3036 19.0612C36.6689 19.0485 36.0344 19.0291 35.4 19.0082C35.4 20.6819 35.4 22.3556 35.4 24.08C34.278 24.08 33.156 24.08 32 24.08C32 18.8198 32 13.5595 32 8.13992ZM35.4 10.6758C35.4 12.5886 35.4 14.5015 35.4 16.4722C37.9951 16.4758 37.9951 16.4758 40.3111 15.7477C41.2284 15.0247 41.2284 15.0247 41.1847 13.5967C41.1577 12.646 41.1388 12.2322 40.5944 11.423C38.8602 10.4133 37.5468 10.6758 35.4 10.6758Z" fill="#ED2A68"/>
</svg>
